<?xml version="1.0" encoding="UTF-8" standalone="no"?>
<svg
   xmlns:dc="http://purl.org/dc/elements/1.1/"
   xmlns:cc="http://creativecommons.org/ns#"
   xmlns:rdf="http://www.w3.org/1999/02/22-rdf-syntax-ns#"
   xmlns:svg="http://www.w3.org/2000/svg"
   xmlns="http://www.w3.org/2000/svg"
   xmlns:sodipodi="http://sodipodi.sourceforge.net/DTD/sodipodi-0.dtd"
   xmlns:inkscape="http://www.inkscape.org/namespaces/inkscape"
   sodipodi:docname="data_analysis.svg"
   inkscape:version="1.0 (1.0+r73+1)"
   id="svg8"
   version="1.1"
   viewBox="0 0 106.53954 109.22549"
   height="109.22549mm"
   width="106.53954mm">
  <defs
     id="defs2" />
  <sodipodi:namedview
     inkscape:window-maximized="0"
     inkscape:window-y="100"
     inkscape:window-x="512"
     inkscape:window-height="1197"
     inkscape:window-width="1516"
     showgrid="false"
     inkscape:document-rotation="0"
     inkscape:current-layer="layer1"
     inkscape:document-units="mm"
     inkscape:cy="453.20561"
     inkscape:cx="263.4952"
     inkscape:zoom="0.35"
     inkscape:pageshadow="2"
     inkscape:pageopacity="0.0"
     borderopacity="1.0"
     bordercolor="#666666"
     pagecolor="#ffffff"
     id="base" />
  <metadata
     id="metadata5">
    <rdf:RDF>
      <cc:Work
         rdf:about="">
        <dc:format>image/svg+xml</dc:format>
        <dc:type
           rdf:resource="http://purl.org/dc/dcmitype/StillImage" />
        <dc:title></dc:title>
      </cc:Work>
    </rdf:RDF>
  </metadata>
  <g
     transform="translate(-36.116895,-28.256017)"
     id="layer1"
     inkscape:groupmode="layer"
     inkscape:label="Layer 1">
    <g
       transform="translate(119.62476,134.27353)"
       id="g182">
      <g
         id="g2320"
         transform="matrix(0.35277777,0,0,-0.35277777,-71.92214,-75.954227)"
         style="fill:#343a40;fill-opacity:0;stroke:#beae9e;stroke-opacity:1">
        <path
           d="m 0,0 c 3.487,0 6.313,-2.827 6.313,-6.313 0,-3.488 -2.826,-6.314 -6.313,-6.314 -3.486,0 -6.313,2.826 -6.313,6.314 C -6.313,-2.827 -3.486,0 0,0 Z"
           style="fill:#343a40;fill-opacity:0;stroke:#beae9e;stroke-width:3;stroke-linecap:butt;stroke-linejoin:miter;stroke-miterlimit:10;stroke-dasharray:none;stroke-opacity:1"
           id="path2322" />
      </g>
      <g
         id="g2324"
         transform="matrix(0.35277777,0,0,-0.35277777,-43.697529,-104.95918)"
         style="fill:#343a40;fill-opacity:0;stroke:#beae9e;stroke-opacity:1">
        <path
           d="M 0,0 C 60.656,0 109.828,-12.916 109.828,-28.848 109.828,-44.78 60.656,-57.695 0,-57.695 c -60.657,0 -109.828,12.915 -109.828,28.847 C -109.828,-12.916 -60.657,0 0,0 Z"
           style="fill:#343a40;fill-opacity:0;stroke:#beae9e;stroke-width:6;stroke-linecap:butt;stroke-linejoin:miter;stroke-miterlimit:10;stroke-dasharray:none;stroke-opacity:1"
           id="path2326" />
      </g>
      <g
         id="g2328"
         transform="matrix(0.35277777,0,0,-0.35277777,-82.44245,-94.782347)"
         style="fill:#343a40;fill-opacity:0;stroke:#beae9e;stroke-opacity:1">
        <path
           d="M 0,0 V -203.943"
           style="fill:#343a40;fill-opacity:0;stroke:#beae9e;stroke-width:6;stroke-linecap:butt;stroke-linejoin:miter;stroke-miterlimit:10;stroke-dasharray:none;stroke-opacity:1"
           id="path2330" />
      </g>
      <g
         id="g2332"
         transform="matrix(0.35277777,0,0,-0.35277777,-4.9526068,-94.782347)"
         style="fill:#343a40;fill-opacity:0;stroke:#beae9e;stroke-opacity:1">
        <path
           d="M 0,0 V -127.227"
           style="fill:#343a40;fill-opacity:0;stroke:#beae9e;stroke-width:6;stroke-linecap:butt;stroke-linejoin:miter;stroke-miterlimit:10;stroke-dasharray:none;stroke-opacity:1"
           id="path2334" />
      </g>
      <g
         id="g2336"
         transform="matrix(0.35277777,0,0,-0.35277777,-4.9526068,-70.890975)"
         style="fill:#343a40;fill-opacity:0;stroke:#beae9e;stroke-opacity:1">
        <path
           d="m 0,0 c 0,-15.937 -49.169,-28.849 -109.828,-28.849 -60.66,0 -109.828,12.912 -109.828,28.849"
           style="fill:#343a40;fill-opacity:0;stroke:#beae9e;stroke-width:6;stroke-linecap:butt;stroke-linejoin:miter;stroke-miterlimit:10;stroke-dasharray:none;stroke-opacity:1"
           id="path2338" />
      </g>
      <g
         id="g2340"
         transform="matrix(0.35277777,0,0,-0.35277777,-71.92214,-52.055605)"
         style="fill:#343a40;fill-opacity:0;stroke:#beae9e;stroke-opacity:1">
        <path
           d="m 0,0 c 3.487,0 6.313,-2.827 6.313,-6.314 0,-3.487 -2.826,-6.314 -6.313,-6.314 -3.486,0 -6.313,2.827 -6.313,6.314 C -6.313,-2.827 -3.486,0 0,0 Z"
           style="fill:#343a40;fill-opacity:0;stroke:#beae9e;stroke-width:3;stroke-linecap:butt;stroke-linejoin:miter;stroke-miterlimit:10;stroke-dasharray:none;stroke-opacity:1"
           id="path2342" />
      </g>
      <g
         id="g2344"
         transform="matrix(0.35277777,0,0,-0.35277777,-71.92214,-28.163862)"
         style="fill:#343a40;fill-opacity:0;stroke:#beae9e;stroke-opacity:1">
        <path
           d="m 0,0 c 3.487,0 6.313,-2.826 6.313,-6.313 0,-3.487 -2.826,-6.314 -6.313,-6.314 -3.486,0 -6.313,2.827 -6.313,6.314 C -6.313,-2.826 -3.486,0 0,0 Z"
           style="fill:#343a40;fill-opacity:0;stroke:#beae9e;stroke-width:3;stroke-linecap:butt;stroke-linejoin:miter;stroke-miterlimit:10;stroke-dasharray:none;stroke-opacity:1"
           id="path2346" />
      </g>
      <g
         id="g2348"
         transform="matrix(0.35277777,0,0,-0.35277777,-28.965952,-13.675861)"
         style="fill:#343a40;fill-opacity:0;stroke:#beae9e;stroke-opacity:1">
        <path
           d="m 0,0 c -12.871,-1.401 -26.98,-2.173 -41.779,-2.173 -60.659,0 -109.828,12.912 -109.828,28.848"
           style="fill:#343a40;fill-opacity:0;stroke:#beae9e;stroke-width:6;stroke-linecap:butt;stroke-linejoin:miter;stroke-miterlimit:10;stroke-dasharray:none;stroke-opacity:1"
           id="path2350" />
      </g>
      <g
         id="g2352"
         transform="matrix(0.35277777,0,0,-0.35277777,-25.922212,-37.946884)"
         style="fill:#343a40;fill-opacity:0;stroke:#beae9e;stroke-opacity:1">
        <path
           d="m 0,0 c -15.104,-2.051 -32.218,-3.228 -50.387,-3.228 -60.66,0 -109.828,12.912 -109.828,28.848"
           style="fill:#343a40;fill-opacity:0;stroke:#beae9e;stroke-width:6;stroke-linecap:butt;stroke-linejoin:miter;stroke-miterlimit:10;stroke-dasharray:none;stroke-opacity:1"
           id="path2354" />
      </g>
      <g
         id="g2356"
         transform="matrix(0.35277777,0,0,-0.35277777,-4.9670788,-46.333302)"
         style="fill:#343a40;fill-opacity:0;stroke:#beae9e;stroke-opacity:1">
        <path
           d="m 0,0 c 33.736,0 61.086,-27.35 61.086,-61.086 0,-33.736 -27.35,-61.085 -61.086,-61.085 -33.736,0 -61.086,27.349 -61.086,61.085 C -61.086,-27.35 -33.736,0 0,0 Z"
           style="fill:#343a40;fill-opacity:0;stroke:#beae9e;stroke-width:6;stroke-linecap:butt;stroke-linejoin:miter;stroke-miterlimit:10;stroke-dasharray:none;stroke-opacity:1"
           id="path2358" />
      </g>
      <g
         id="g2360"
         transform="matrix(0.35277777,0,0,-0.35277777,10.273,-9.5506893)"
         style="fill:#343a40;fill-opacity:0;stroke:#beae9e;stroke-opacity:1">
        <path
           d="M 0,0 34.045,-34.045"
           style="fill:#343a40;fill-opacity:0;stroke:#beae9e;stroke-width:6;stroke-linecap:butt;stroke-linejoin:miter;stroke-miterlimit:10;stroke-dasharray:none;stroke-opacity:1"
           id="path2362" />
      </g>
      <g
         id="g2364"
         transform="matrix(0.35277777,0,0,-0.35277777,14.405395,-28.364363)"
         style="fill:#343a40;fill-opacity:0;stroke:#beae9e;stroke-opacity:1">
        <path
           d="M 0,0 V -20.28"
           style="fill:#343a40;fill-opacity:0;stroke:#beae9e;stroke-width:3;stroke-linecap:butt;stroke-linejoin:miter;stroke-miterlimit:10;stroke-dasharray:none;stroke-opacity:1"
           id="path2366" />
      </g>
      <g
         id="g2368"
         transform="matrix(0.35277777,0,0,-0.35277777,1.4928022,-28.364363)"
         style="fill:#343a40;fill-opacity:0;stroke:#beae9e;stroke-opacity:1">
        <path
           d="M 0,0 V -20.28"
           style="fill:#343a40;fill-opacity:0;stroke:#beae9e;stroke-width:3;stroke-linecap:butt;stroke-linejoin:miter;stroke-miterlimit:10;stroke-dasharray:none;stroke-opacity:1"
           id="path2370" />
      </g>
      <g
         id="g2372"
         transform="matrix(0.35277777,0,0,-0.35277777,8.1318862,-21.209924)"
         style="fill:#343a40;fill-opacity:0;stroke:#beae9e;stroke-opacity:1">
        <path
           d="m 0,0 h -1.808 c -2.659,0 -4.831,2.151 -4.831,4.831 v 10.638 c 0,2.66 2.152,4.832 4.831,4.832 H 0 c 2.659,0 4.831,-2.153 4.831,-4.832 V 4.831 C 4.831,2.151 2.659,0 0,0 Z"
           style="fill:#343a40;fill-opacity:0;stroke:#beae9e;stroke-width:3;stroke-linecap:butt;stroke-linejoin:miter;stroke-miterlimit:10;stroke-dasharray:none;stroke-opacity:1"
           id="path2374" />
      </g>
      <g
         id="g2376"
         transform="matrix(0.35277777,0,0,-0.35277777,1.8080532,-35.454721)"
         style="fill:#343a40;fill-opacity:0;stroke:#beae9e;stroke-opacity:1">
        <path
           d="m 0,0 h -1.808 c -2.659,0 -4.831,2.151 -4.831,4.831 v 10.638 c 0,2.659 2.152,4.832 4.831,4.832 H 0 c 2.659,0 4.831,-2.153 4.831,-4.832 V 4.831 C 4.831,2.151 2.68,0 0,0 Z"
           style="fill:#343a40;fill-opacity:0;stroke:#beae9e;stroke-width:3;stroke-linecap:butt;stroke-linejoin:miter;stroke-miterlimit:10;stroke-dasharray:none;stroke-opacity:1"
           id="path2378" />
      </g>
      <g
         id="g2380"
         transform="matrix(0.35277777,0,0,-0.35277777,7.8166352,-42.13373)"
         style="fill:#343a40;fill-opacity:0;stroke:#beae9e;stroke-opacity:1">
        <path
           d="M 0,0 V -18.933"
           style="fill:#343a40;fill-opacity:0;stroke:#beae9e;stroke-width:3;stroke-linecap:butt;stroke-linejoin:miter;stroke-miterlimit:10;stroke-dasharray:none;stroke-opacity:1"
           id="path2382" />
      </g>
      <g
         id="g2384"
         transform="matrix(0.35277777,0,0,-0.35277777,1.8080532,-6.9651283)"
         style="fill:#343a40;fill-opacity:0;stroke:#beae9e;stroke-opacity:1">
        <path
           d="M 0,0 H -1.808 C -4.467,0 -6.639,2.152 -6.639,4.832 V 15.47 c 0,2.659 2.152,4.831 4.831,4.831 H 0 c 2.659,0 4.831,-2.152 4.831,-4.831 V 4.832 C 4.831,2.152 2.68,0 0,0 Z"
           style="fill:#343a40;fill-opacity:0;stroke:#beae9e;stroke-width:3;stroke-linecap:butt;stroke-linejoin:miter;stroke-miterlimit:10;stroke-dasharray:none;stroke-opacity:1"
           id="path2386" />
      </g>
      <g
         id="g2388"
         transform="matrix(0.35277777,0,0,-0.35277777,7.8166352,-14.119938)"
         style="fill:#343a40;fill-opacity:0;stroke:#beae9e;stroke-opacity:1">
        <path
           d="M 0,0 V -18.953"
           style="fill:#343a40;fill-opacity:0;stroke:#beae9e;stroke-width:3;stroke-linecap:butt;stroke-linejoin:miter;stroke-miterlimit:10;stroke-dasharray:none;stroke-opacity:1"
           id="path2390" />
      </g>
      <g
         id="g2392"
         transform="matrix(0.35277777,0,0,-0.35277777,-11.419738,-28.364363)"
         style="fill:#343a40;fill-opacity:0;stroke:#beae9e;stroke-opacity:1">
        <path
           d="M 0,0 V -20.28"
           style="fill:#343a40;fill-opacity:0;stroke:#beae9e;stroke-width:3;stroke-linecap:butt;stroke-linejoin:miter;stroke-miterlimit:10;stroke-dasharray:none;stroke-opacity:1"
           id="path2394" />
      </g>
      <g
         id="g2396"
         transform="matrix(0.35277777,0,0,-0.35277777,-4.7810508,-21.209924)"
         style="fill:#343a40;fill-opacity:0;stroke:#beae9e;stroke-opacity:1">
        <path
           d="m 0,0 h -1.807 c -2.659,0 -4.831,2.151 -4.831,4.831 v 10.638 c 0,2.66 2.152,4.832 4.831,4.832 H 0 c 2.66,0 4.832,-2.153 4.832,-4.832 V 4.831 C 4.832,2.151 2.66,0 0,0 Z"
           style="fill:#343a40;fill-opacity:0;stroke:#beae9e;stroke-width:3;stroke-linecap:butt;stroke-linejoin:miter;stroke-miterlimit:10;stroke-dasharray:none;stroke-opacity:1"
           id="path2398" />
      </g>
      <g
         id="g2400"
         transform="matrix(0.35277777,0,0,-0.35277777,-11.10454,-35.454721)"
         style="fill:#343a40;fill-opacity:0;stroke:#beae9e;stroke-opacity:1">
        <path
           d="m 0,0 h -1.808 c -2.659,0 -4.831,2.151 -4.831,4.831 v 10.638 c 0,2.659 2.152,4.832 4.831,4.832 H 0 c 2.659,0 4.831,-2.153 4.831,-4.832 V 4.831 C 4.831,2.151 2.68,0 0,0 Z"
           style="fill:#343a40;fill-opacity:0;stroke:#beae9e;stroke-width:3;stroke-linecap:butt;stroke-linejoin:miter;stroke-miterlimit:10;stroke-dasharray:none;stroke-opacity:1"
           id="path2402" />
      </g>
      <g
         id="g2404"
         transform="matrix(0.35277777,0,0,-0.35277777,-5.0959048,-42.609133)"
         style="fill:#343a40;fill-opacity:0;stroke:#beae9e;stroke-opacity:1">
        <path
           d="M 0,0 V -20.28"
           style="fill:#343a40;fill-opacity:0;stroke:#beae9e;stroke-width:3;stroke-linecap:butt;stroke-linejoin:miter;stroke-miterlimit:10;stroke-dasharray:none;stroke-opacity:1"
           id="path2406" />
      </g>
      <g
         id="g2408"
         transform="matrix(0.35277777,0,0,-0.35277777,-11.10454,-6.9651283)"
         style="fill:#343a40;fill-opacity:0;stroke:#beae9e;stroke-opacity:1">
        <path
           d="M 0,0 H -1.808 C -4.467,0 -6.639,2.152 -6.639,4.832 V 15.47 c 0,2.659 2.152,4.831 4.831,4.831 H 0 c 2.659,0 4.831,-2.152 4.831,-4.831 V 4.832 C 4.831,2.152 2.68,0 0,0 Z"
           style="fill:#343a40;fill-opacity:0;stroke:#beae9e;stroke-width:3;stroke-linecap:butt;stroke-linejoin:miter;stroke-miterlimit:10;stroke-dasharray:none;stroke-opacity:1"
           id="path2410" />
      </g>
      <g
         id="g2412"
         transform="matrix(0.35277777,0,0,-0.35277777,-5.0959048,-14.119938)"
         style="fill:#343a40;fill-opacity:0;stroke:#beae9e;stroke-opacity:1">
        <path
           d="M 0,0 V -20.281"
           style="fill:#343a40;fill-opacity:0;stroke:#beae9e;stroke-width:3;stroke-linecap:butt;stroke-linejoin:miter;stroke-miterlimit:10;stroke-dasharray:none;stroke-opacity:1"
           id="path2414" />
      </g>
      <g
         id="g2416"
         transform="matrix(0.35277777,0,0,-0.35277777,-24.33233,-28.364363)"
         style="fill:#343a40;fill-opacity:0;stroke:#beae9e;stroke-opacity:1">
        <path
           d="M 0,0 V -20.28"
           style="fill:#343a40;fill-opacity:0;stroke:#beae9e;stroke-width:3;stroke-linecap:butt;stroke-linejoin:miter;stroke-miterlimit:10;stroke-dasharray:none;stroke-opacity:1"
           id="path2418" />
      </g>
      <g
         id="g2420"
         transform="matrix(0.35277777,0,0,-0.35277777,-17.693617,-21.209924)"
         style="fill:#343a40;fill-opacity:0;stroke:#beae9e;stroke-opacity:1">
        <path
           d="m 0,0 h -1.807 c -2.659,0 -4.831,2.151 -4.831,4.831 v 10.638 c 0,2.66 2.152,4.832 4.831,4.832 H 0 c 2.66,0 4.832,-2.153 4.832,-4.832 V 4.831 C 4.812,2.151 2.66,0 0,0 Z"
           style="fill:#343a40;fill-opacity:0;stroke:#beae9e;stroke-width:3;stroke-linecap:butt;stroke-linejoin:miter;stroke-miterlimit:10;stroke-dasharray:none;stroke-opacity:1"
           id="path2422" />
      </g>
      <g
         id="g2424"
         transform="matrix(0.35277777,0,0,-0.35277777,-18.008498,-41.940452)"
         style="fill:#343a40;fill-opacity:0;stroke:#beae9e;stroke-opacity:1">
        <path
           d="M 0,0 V -18.385"
           style="fill:#343a40;fill-opacity:0;stroke:#beae9e;stroke-width:3;stroke-linecap:butt;stroke-linejoin:miter;stroke-miterlimit:10;stroke-dasharray:none;stroke-opacity:1"
           id="path2426" />
      </g>
      <g
         id="g2428"
         transform="matrix(0.35277777,0,0,-0.35277777,-18.008498,-14.119938)"
         style="fill:#343a40;fill-opacity:0;stroke:#beae9e;stroke-opacity:1">
        <path
           d="M 0,0 V -18.406"
           style="fill:#343a40;fill-opacity:0;stroke:#beae9e;stroke-width:3;stroke-linecap:butt;stroke-linejoin:miter;stroke-miterlimit:10;stroke-dasharray:none;stroke-opacity:1"
           id="path2430" />
      </g>
    </g>
  </g>
</svg>
