<?xml version="1.0" encoding="UTF-8" standalone="no"?>
<svg
   xmlns:dc="http://purl.org/dc/elements/1.1/"
   xmlns:cc="http://creativecommons.org/ns#"
   xmlns:rdf="http://www.w3.org/1999/02/22-rdf-syntax-ns#"
   xmlns:svg="http://www.w3.org/2000/svg"
   xmlns="http://www.w3.org/2000/svg"
   xmlns:sodipodi="http://sodipodi.sourceforge.net/DTD/sodipodi-0.dtd"
   xmlns:inkscape="http://www.inkscape.org/namespaces/inkscape"
   sodipodi:docname="management.svg"
   inkscape:version="1.0 (1.0+r73+1)"
   id="svg2340"
   version="1.1"
   viewBox="0 0 122.06107 99.901016"
   height="99.901016mm"
   width="122.06107mm">
  <defs
     id="defs2334" />
  <sodipodi:namedview
     inkscape:window-maximized="0"
     inkscape:window-y="100"
     inkscape:window-x="512"
     inkscape:window-height="1197"
     inkscape:window-width="1516"
     showgrid="false"
     inkscape:document-rotation="0"
     inkscape:current-layer="layer1"
     inkscape:document-units="mm"
     inkscape:cy="188.78932"
     inkscape:cx="230.6666"
     inkscape:zoom="0.35"
     inkscape:pageshadow="2"
     inkscape:pageopacity="0.0"
     borderopacity="1.0"
     bordercolor="#666666"
     pagecolor="#ffffff"
     id="base" />
  <metadata
     id="metadata2337">
    <rdf:RDF>
      <cc:Work
         rdf:about="">
        <dc:format>image/svg+xml</dc:format>
        <dc:type
           rdf:resource="http://purl.org/dc/dcmitype/StillImage" />
        <dc:title></dc:title>
      </cc:Work>
    </rdf:RDF>
  </metadata>
  <g
     transform="translate(-44.802795,-98.216158)"
     id="layer1"
     inkscape:groupmode="layer"
     inkscape:label="Layer 1">
    <g
       transform="matrix(0.35277777,0,0,-0.35277777,-693.1956,243.52147)"
       id="g2267">
      <g
         style="stroke:#beae9e;stroke-opacity:1"
         transform="translate(2295.4141,213.7461)"
         id="g1094">
        <path
           id="path1096"
           style="fill:none;stroke:#beae9e;stroke-width:6;stroke-linecap:butt;stroke-linejoin:miter;stroke-miterlimit:10;stroke-dasharray:none;stroke-opacity:1"
           d="m 0,0 c 0,-18.558 -13.633,-33.601 -30.45,-33.601 -16.818,0 -30.45,15.043 -30.45,33.601 0,18.557 13.632,33.601 30.45,33.601 C -13.633,33.601 0,18.557 0,0 Z" />
      </g>
      <g
         style="stroke:#beae9e;stroke-opacity:1"
         transform="translate(2315.335,128.7051)"
         id="g1098">
        <path
           id="path1100"
           style="fill:none;stroke:#beae9e;stroke-width:6;stroke-linecap:butt;stroke-linejoin:miter;stroke-miterlimit:10;stroke-dasharray:none;stroke-opacity:1"
           d="m 0,0 v 10.402 c 0,16.608 -12.349,30.408 -28.599,33.183 -1.404,0.24 -2.847,-0.131 -3.961,-1.019 -5.008,-3.992 -11.161,-6.344 -17.811,-6.344 -6.65,0 -12.803,2.352 -17.811,6.344 -1.113,0.888 -2.557,1.259 -3.961,1.019 -16.25,-2.775 -28.599,-16.575 -28.599,-33.183 V 0" />
      </g>
      <g
         style="stroke:#beae9e;stroke-opacity:1"
         transform="translate(2235.8086,128.7051)"
         id="g1102">
        <path
           id="path1104"
           style="fill:none;stroke:#beae9e;stroke-width:6;stroke-linecap:butt;stroke-linejoin:miter;stroke-miterlimit:10;stroke-dasharray:none;stroke-opacity:1"
           d="M 0,0 V 14.141" />
      </g>
      <g
         style="stroke:#beae9e;stroke-opacity:1"
         transform="translate(2294.1191,128.7051)"
         id="g1106">
        <path
           id="path1108"
           style="fill:none;stroke:#beae9e;stroke-width:6;stroke-linecap:butt;stroke-linejoin:miter;stroke-miterlimit:10;stroke-dasharray:none;stroke-opacity:1"
           d="M 0,0 V 14.141" />
      </g>
      <g
         style="stroke:#beae9e;stroke-opacity:1"
         transform="translate(2175.7861,213.7461)"
         id="g1110">
        <path
           id="path1112"
           style="fill:none;stroke:#beae9e;stroke-width:6;stroke-linecap:butt;stroke-linejoin:miter;stroke-miterlimit:10;stroke-dasharray:none;stroke-opacity:1"
           d="m 0,0 c 0,-18.558 -13.634,-33.601 -30.451,-33.601 -16.818,0 -30.45,15.043 -30.45,33.601 0,18.557 13.632,33.601 30.45,33.601 C -13.634,33.601 0,18.557 0,0 Z" />
      </g>
      <g
         style="stroke:#beae9e;stroke-opacity:1"
         transform="translate(2195.707,128.7051)"
         id="g1114">
        <path
           id="path1116"
           style="fill:none;stroke:#beae9e;stroke-width:6;stroke-linecap:butt;stroke-linejoin:miter;stroke-miterlimit:10;stroke-dasharray:none;stroke-opacity:1"
           d="m 0,0 v 10.402 c 0,16.608 -12.35,30.408 -28.6,33.183 -1.403,0.24 -2.847,-0.131 -3.961,-1.019 -5.007,-3.992 -11.16,-6.344 -17.811,-6.344 -6.65,0 -12.803,2.352 -17.811,6.344 -1.113,0.888 -2.557,1.259 -3.961,1.019 -16.25,-2.775 -28.599,-16.575 -28.599,-33.183 V 0" />
      </g>
      <g
         style="stroke:#beae9e;stroke-opacity:1"
         transform="translate(2116.1807,128.7051)"
         id="g1118">
        <path
           id="path1120"
           style="fill:none;stroke:#beae9e;stroke-width:6;stroke-linecap:butt;stroke-linejoin:miter;stroke-miterlimit:10;stroke-dasharray:none;stroke-opacity:1"
           d="M 0,0 V 14.141" />
      </g>
      <g
         style="stroke:#beae9e;stroke-opacity:1"
         transform="translate(2174.4902,128.7051)"
         id="g1122">
        <path
           id="path1124"
           style="fill:none;stroke:#beae9e;stroke-width:6;stroke-linecap:butt;stroke-linejoin:miter;stroke-miterlimit:10;stroke-dasharray:none;stroke-opacity:1"
           d="M 0,0 V 14.141" />
      </g>
      <g
         style="stroke:#beae9e;stroke-opacity:1"
         transform="translate(2415.043,213.7461)"
         id="g1126">
        <path
           id="path1128"
           style="fill:none;stroke:#beae9e;stroke-width:6;stroke-linecap:butt;stroke-linejoin:miter;stroke-miterlimit:10;stroke-dasharray:none;stroke-opacity:1"
           d="m 0,0 c 0,-18.558 -13.633,-33.601 -30.45,-33.601 -16.818,0 -30.45,15.043 -30.45,33.601 0,18.557 13.632,33.601 30.45,33.601 C -13.633,33.601 0,18.557 0,0 Z" />
      </g>
      <g
         style="stroke:#beae9e;stroke-opacity:1"
         transform="translate(2434.9639,128.7051)"
         id="g1130">
        <path
           id="path1132"
           style="fill:none;stroke:#beae9e;stroke-width:6;stroke-linecap:butt;stroke-linejoin:miter;stroke-miterlimit:10;stroke-dasharray:none;stroke-opacity:1"
           d="m 0,0 v 10.402 c 0,16.608 -12.349,30.408 -28.6,33.183 -1.403,0.24 -2.846,-0.131 -3.96,-1.019 -5.008,-3.992 -11.161,-6.344 -17.811,-6.344 -6.65,0 -12.803,2.352 -17.812,6.344 -1.113,0.888 -2.556,1.259 -3.96,1.019 C -88.394,40.81 -100.742,27.01 -100.742,10.402 V 0" />
      </g>
      <g
         style="stroke:#beae9e;stroke-opacity:1"
         transform="translate(2355.4375,128.7051)"
         id="g1134">
        <path
           id="path1136"
           style="fill:none;stroke:#beae9e;stroke-width:6;stroke-linecap:butt;stroke-linejoin:miter;stroke-miterlimit:10;stroke-dasharray:none;stroke-opacity:1"
           d="M 0,0 V 14.141" />
      </g>
      <g
         style="stroke:#beae9e;stroke-opacity:1"
         transform="translate(2413.748,128.7051)"
         id="g1138">
        <path
           id="path1140"
           style="fill:none;stroke:#beae9e;stroke-width:6;stroke-linecap:butt;stroke-linejoin:miter;stroke-miterlimit:10;stroke-dasharray:none;stroke-opacity:1"
           d="M 0,0 V 14.141" />
      </g>
      <g
         style="stroke:#beae9e;stroke-opacity:1"
         transform="translate(2322.4697,346.5703)"
         id="g1142">
        <path
           id="path1144"
           style="fill:none;stroke:#beae9e;stroke-width:6;stroke-linecap:butt;stroke-linejoin:miter;stroke-miterlimit:10;stroke-dasharray:none;stroke-opacity:1"
           d="m 0,0 c 0.87,-3.544 2.164,-10.86 -0.065,-19.653 -2.379,-9.385 -7.502,-15.449 -10.039,-18.097 -0.013,-0.053 -0.142,-0.604 0.247,-1.063 0.236,-0.281 0.599,-0.453 1.007,-0.419 l 26.863,6.127 c 3.3,0.752 6.752,0.37 9.819,-1.063 0.875,-0.409 1.765,-0.794 2.667,-1.154 5.439,-2.168 11.362,-3.427 17.597,-3.576 26.602,-0.641 49.422,19.919 51.6,46.439 2.39,29.088 -20.24,54.286 -49.682,54.771 C 24.649,62.729 2.588,43.849 -0.873,18.718 -1.765,12.248 -1.409,5.935 -0.001,0" />
      </g>
      <g
         style="stroke:#beae9e;stroke-opacity:1"
         transform="translate(2182.1797,214.5684)"
         id="g1146">
        <path
           id="path1148"
           style="fill:none;stroke:#beae9e;stroke-width:6;stroke-linecap:butt;stroke-linejoin:miter;stroke-miterlimit:10;stroke-dasharray:none;stroke-opacity:1"
           d="M 0,0 H 45.94" />
      </g>
      <g
         style="stroke:#beae9e;stroke-opacity:1"
         transform="translate(2322.5098,399.9951)"
         id="g1150">
        <path
           id="path1152"
           style="fill:none;stroke:#beae9e;stroke-width:6;stroke-linecap:butt;stroke-linejoin:miter;stroke-miterlimit:10;stroke-dasharray:none;stroke-opacity:1"
           d="m 0,0 h -186.449 c -8.112,0 -14.688,-6.576 -14.688,-14.688 v -137.168" />
      </g>
      <g
         style="stroke:#beae9e;stroke-opacity:1"
         transform="translate(2408.5557,248.1387)"
         id="g1154">
        <path
           id="path1156"
           style="fill:none;stroke:#beae9e;stroke-width:6;stroke-linecap:butt;stroke-linejoin:miter;stroke-miterlimit:10;stroke-dasharray:none;stroke-opacity:1"
           d="M 0,0 V 56.263" />
      </g>
      <g
         style="stroke:#beae9e;stroke-opacity:1"
         transform="translate(2301.8076,214.5684)"
         id="g1158">
        <path
           id="path1160"
           style="fill:none;stroke:#beae9e;stroke-width:6;stroke-linecap:butt;stroke-linejoin:miter;stroke-miterlimit:10;stroke-dasharray:none;stroke-opacity:1"
           d="M 0,0 H 45.941" />
      </g>
      <g
         style="stroke:#beae9e;stroke-opacity:1"
         transform="translate(2304.7734,341.3652)"
         id="g1162">
        <path
           id="path1164"
           style="fill:none;stroke:#beae9e;stroke-width:6;stroke-linecap:butt;stroke-linejoin:miter;stroke-miterlimit:10;stroke-dasharray:none;stroke-opacity:1"
           d="m 0,0 c -0.965,1.487 -2.208,2.456 -3.586,2.817 0.518,2.495 1.409,7.699 1.295,13.474 -0.079,3.96 -0.626,7.501 -1.624,10.524 -1.25,3.784 -3.22,6.788 -5.854,8.93 -4.3,3.498 -11.334,5.511 -15.112,6.592 -6.218,1.778 -11.086,2.106 -12.89,2.165 -6.009,0.193 -10.49,-0.783 -13.167,-1.367 -3.323,-0.725 -11.104,-2.421 -15.762,-5.644 -4.184,-2.895 -7.113,-7.953 -8.468,-14.629 -1.184,-5.822 -1.153,-12.674 0.079,-19.895 -1.747,-0.101 -3.347,-1.145 -4.528,-2.966 -1.14,-1.757 -1.768,-4.068 -1.768,-6.507 0,-2.44 0.628,-4.751 1.768,-6.508 1.245,-1.918 2.952,-2.974 4.807,-2.974 0.302,0 0.608,0.033 0.914,0.098 0.16,-0.687 0.795,-2.983 0.795,-2.983 1.222,-4.056 2.954,-7.86 5.147,-11.308 2.178,-3.423 4.767,-6.428 7.698,-8.932 6.12,-5.231 13.36,-7.995 20.937,-7.995 7.568,0 14.801,2.76 20.918,7.983 2.928,2.501 5.517,5.502 7.695,8.92 2.192,3.443 3.926,7.243 5.149,11.293 0,0 0.628,2.26 0.785,2.924 1.842,0.014 3.536,1.069 4.772,2.975 1.139,1.756 1.766,4.067 1.766,6.507 0,2.44 -0.627,4.75 -1.766,6.506 z" />
      </g>
      <g
         style="stroke:#beae9e;stroke-opacity:1"
         transform="translate(2291.0703,359.0586)"
         id="g1166">
        <path
           id="path1168"
           style="fill:none;stroke:#beae9e;stroke-width:6;stroke-linecap:butt;stroke-linejoin:miter;stroke-miterlimit:10;stroke-dasharray:none;stroke-opacity:1"
           d="m 0,0 c 0.066,4.895 -1.421,6.261 -2.867,6.555 -2.052,0.415 -3.831,-1.369 -7.471,-1.174 -3.324,0.179 -3.415,1.728 -6.184,1.869 -5.205,0.264 -6.622,-5.41 -11.697,-5.319 -3.675,0.066 -4.071,3.061 -7.888,2.793 -3.637,-0.256 -4.788,-3.081 -7.711,-2.499 -2.642,0.525 -3.274,3.143 -4.916,2.926 -1.085,-0.142 -2.385,-1.492 -3.481,-6.501" />
      </g>
      <g
         style="stroke:#beae9e;stroke-opacity:1"
         transform="translate(2268.6797,270.1396)"
         id="g1170">
        <path
           id="path1172"
           style="fill:none;stroke:#beae9e;stroke-width:6;stroke-linecap:butt;stroke-linejoin:miter;stroke-miterlimit:10;stroke-dasharray:none;stroke-opacity:1"
           d="M 0,0 C 0.728,0 1.386,0.331 1.7,0.847 2.822,2.688 4.979,8.641 4.979,8.641 6.017,10.78 4.72,13.455 2.645,13.455 h -12.721 c -2.074,0 -3.372,-2.675 -2.335,-4.814 0,0 2.157,-5.953 3.28,-7.794 C -8.816,0.331 -8.158,0 -7.431,0 Z" />
      </g>
      <g
         style="stroke:#beae9e;stroke-opacity:1"
         transform="translate(2272.6924,251.7607)"
         id="g1174">
        <path
           id="path1176"
           style="fill:none;stroke:#beae9e;stroke-width:6;stroke-linecap:butt;stroke-linejoin:miter;stroke-miterlimit:10;stroke-dasharray:none;stroke-opacity:1"
           d="M 0,0 -3.942,18.379" />
      </g>
      <g
         style="stroke:#beae9e;stroke-opacity:1"
         transform="translate(2261.1787,270.1396)"
         id="g1178">
        <path
           id="path1180"
           style="fill:none;stroke:#beae9e;stroke-width:6;stroke-linecap:butt;stroke-linejoin:miter;stroke-miterlimit:10;stroke-dasharray:none;stroke-opacity:1"
           d="M 0,0 -3.942,-18.379" />
      </g>
      <g
         style="stroke:#beae9e;stroke-opacity:1"
         transform="translate(2308.6162,224.457)"
         id="g1182">
        <path
           id="path1184"
           style="fill:none;stroke:#beae9e;stroke-width:6;stroke-linecap:butt;stroke-linejoin:miter;stroke-miterlimit:10;stroke-dasharray:none;stroke-opacity:1"
           d="M 0,0 V 16.761" />
      </g>
      <g
         style="stroke:#beae9e;stroke-opacity:1"
         transform="translate(2221.3125,224.457)"
         id="g1186">
        <path
           id="path1188"
           style="fill:none;stroke:#beae9e;stroke-width:6;stroke-linecap:butt;stroke-linejoin:miter;stroke-miterlimit:10;stroke-dasharray:none;stroke-opacity:1"
           d="M 0,0 V 16.761" />
      </g>
      <g
         style="stroke:#beae9e;stroke-opacity:1"
         transform="translate(2235.6377,282.5937)"
         id="g1190">
        <path
           id="path1192"
           style="fill:none;stroke:#beae9e;stroke-width:6;stroke-linecap:butt;stroke-linejoin:miter;stroke-miterlimit:10;stroke-dasharray:none;stroke-opacity:1"
           d="M 0,0 C -25.591,-1.615 -44.749,-2.498 -44.749,-58.137" />
      </g>
      <g
         style="stroke:#beae9e;stroke-opacity:1"
         transform="translate(2339.0391,224.457)"
         id="g1194">
        <path
           id="path1196"
           style="fill:none;stroke:#beae9e;stroke-width:6;stroke-linecap:butt;stroke-linejoin:miter;stroke-miterlimit:10;stroke-dasharray:none;stroke-opacity:1"
           d="M 0,0 C 0,55.639 -19.157,56.521 -44.748,58.137" />
      </g>
      <g
         style="stroke:#beae9e;stroke-opacity:1"
         transform="translate(2255.9043,283.4512)"
         id="g1198">
        <path
           id="path1200"
           style="fill:none;stroke:#beae9e;stroke-width:6;stroke-linecap:butt;stroke-linejoin:miter;stroke-miterlimit:10;stroke-dasharray:none;stroke-opacity:1"
           d="m 0,0 -10.134,-16.935 -10.133,16.078 8.405,9.675 z" />
      </g>
      <g
         style="stroke:#beae9e;stroke-opacity:1"
         transform="translate(2274.0244,283.4512)"
         id="g1202">
        <path
           id="path1204"
           style="fill:none;stroke:#beae9e;stroke-width:6;stroke-linecap:butt;stroke-linejoin:miter;stroke-miterlimit:10;stroke-dasharray:none;stroke-opacity:1"
           d="M 0,0 10.133,-16.935 20.267,-0.857 11.862,8.818 Z" />
      </g>
    </g>
  </g>
</svg>
