<?xml version="1.0" encoding="UTF-8"?>
<svg width="2e3" height="1e3" version="1.1" viewBox="0 0 2e3 1e3" xml:space="preserve" xmlns="http://www.w3.org/2000/svg" xmlns:cc="http://creativecommons.org/ns#" xmlns:dc="http://purl.org/dc/elements/1.1/" xmlns:rdf="http://www.w3.org/1999/02/22-rdf-syntax-ns#"><metadata><rdf:RDF><cc:Work rdf:about=""><dc:format>image/svg+xml</dc:format><dc:type rdf:resource="http://purl.org/dc/dcmitype/StillImage"/><dc:title/></cc:Work></rdf:RDF></metadata><g transform="matrix(1.3333 0 0 -1.3333 0 1e3)"><g transform="scale(.1)"><path d="m6.7617 6.7617h14987v7486.5h-14987z" fill="#393434"/><path d="m6.7617 6.7617h14987v7486.5h-14987z" fill="none" stroke="#beae9e" stroke-width="13.487"/><g fill="#beae9e"><path d="m1579.5 3796.8c527.5 0 911.1 477.81 911.1 1108 0 630.15-383.6 1063.3-911.1 1063.3h-1085.2v-2171.2zm-979.06 113.44v1941.2h979.06c467.66 0 805-388.13 805-952.66 0-561.41-337.34-988.59-805-988.59z"/><path d="m4745.1 4755.5c0-597.35-250.32-872.19-908.44-872.19-652.66 0-905.63 274.84-905.63 872.19v1212.5h-106.09v-1212.5c0-672.03 288.28-988.6 1009.1-988.6 726.1 0 1014.4 316.57 1014.4 988.6v1212.5h-103.28z"/><path d="m7051.4 3799.7c16.25-20.94 37.97-29.85 59.84-29.85 37.97 0 62.5 26.88 62.5 77.66v2123.4h-100.62v-2024.8l-1718.9 2015.9c-19.06 23.91-35.31 32.81-54.38 32.81-40.78 0-65.31-32.81-65.31-83.59v-2114.5h100.63v2024.8z"/><path d="m9267.8 3796.8v113.44h-1569.2v1941.2h1569.2v116.56h-1675.3v-2171.2zm-73.44 1161.7h-1229.4v-110.47h1229.4z"/><path d="m10731 3796.8c527.5 0 911.1 477.81 911.1 1108 0 630.15-383.6 1063.3-911.1 1063.3h-1085.2v-2171.2zm-979.09 113.44v1941.2h979.09c467.6 0 805-388.13 805-952.66 0-561.41-337.4-988.59-805-988.59z"/><path d="m12026 3796.8h105.94v2171.2h-105.94z"/><path d="m14383 3799.7c16.3-20.94 38-29.85 59.9-29.85 38 0 62.5 26.88 62.5 77.66v2123.4h-100.6v-2024.8l-1718.9 2015.9c-19.1 23.91-35.4 32.81-54.4 32.81-40.8 0-65.3-32.81-65.3-83.59v-2114.5h100.6v2024.8z"/><path d="m2329.9 1704.5-902.65 1463c-10.32 16.25-22.82 26.41-41.57 26.41s-31.25-10.16-41.56-26.41l-904.69-1463h91.571l852.65 1382.2 536.56-872.97h-867.34l-39.37-68.75h950.31l270.47-440.47z"/><path d="m3937.4 1706.6c12.5-14.22 29.22-20.15 45.78-20.15 29.07 0 47.82 18.12 47.82 52.5v1436.7h-76.88v-1370l-1314.4 1363.9c-14.54 16.25-27.04 22.35-41.57 22.35-31.25 0-50-22.35-50-56.57v-1430.8h77.03v1370.2z"/><path d="m6139.8 1704.5-902.65 1463c-10.31 16.25-22.81 26.41-41.57 26.41-18.74 0-31.24-10.16-41.56-26.41l-904.68-1463h91.56l852.65 1382.2 536.57-872.97h-867.35l-39.37-68.75h950.31l270.47-440.47z"/><path d="m7576.9 1704.5v76.72h-1131.4v1392.3h-81.09v-1469.1z"/><path d="m8350.5 1704.5v634.53l846.4 834.53h-106.09l-779.84-765.78-777.82 765.78h-110.15l846.4-834.53v-634.53z"/><path d="m10037 1704.5v1390.3h627.9v78.75h-1337.2v-78.75h627.97v-1390.3z"/><path d="m10917 1704.5h81.09v1469.1h-81.09z"/><path d="m12766 1704.5v76.72h-775.6c-355.7 0-615.7 289.06-615.7 668.91 0 385.93 260 644.68 615.7 644.68h775.6v78.75h-775.6c-403.6 0-696.8-286.87-696.8-719.37 0-426.41 293.2-749.69 696.8-749.69z"/><path d="m14151 1704.5c274.6 0 409.7 169.69 409.7 398.13 0 262.65-143.4 387.96-409.7 387.96h-729.8c-197.7 0-318.3 119.22-318.3 299.07 0 175.78 112.3 305.15 320.3 305.15h1066.9v78.75h-1066.9c-262 0-403.4-163.59-403.4-379.84 0-222.34 151.7-377.97 401.4-377.97h729.8c216.4 0 332.8-98.9 332.8-311.09 0-185.94-112.3-323.44-332.8-323.44h-1108.4v-76.72z"/></g></g></g></svg>
